<svg width="266" height="49" viewBox="0 0 266 49" fill="none" xmlns="http://www.w3.org/2000/svg">
<path d="M12.64 39.56C10.3467 39.56 8.13333 39.28 6 38.72C3.89333 38.1333 2.17333 37.3867 0.84 36.48L3.44 30.64C4.69333 31.44 6.13333 32.1067 7.76 32.64C9.41333 33.1467 11.0533 33.4 12.68 33.4C13.7733 33.4 14.6533 33.3067 15.32 33.12C15.9867 32.9067 16.4667 32.64 16.76 32.32C17.08 31.9733 17.24 31.5733 17.24 31.12C17.24 30.48 16.9467 29.9733 16.36 29.6C15.7733 29.2267 15.0133 28.92 14.08 28.68C13.1467 28.44 12.1067 28.2 10.96 27.96C9.84 27.72 8.70667 27.4133 7.56 27.04C6.44 26.6667 5.41333 26.1867 4.48 25.6C3.54667 24.9867 2.78667 24.2 2.2 23.24C1.61333 22.2533 1.32 21.0133 1.32 19.52C1.32 17.84 1.77333 16.32 2.68 14.96C3.61333 13.6 5 12.5067 6.84 11.68C8.68 10.8533 10.9733 10.44 13.72 10.44C15.56 10.44 17.36 10.6533 19.12 11.08C20.9067 11.48 22.4933 12.08 23.88 12.88L21.44 18.76C20.1067 18.04 18.7867 17.5067 17.48 17.16C16.1733 16.7867 14.9067 16.6 13.68 16.6C12.5867 16.6 11.7067 16.72 11.04 16.96C10.3733 17.1733 9.89333 17.4667 9.6 17.84C9.30667 18.2133 9.16 18.64 9.16 19.12C9.16 19.7333 9.44 20.2267 10 20.6C10.5867 20.9467 11.3467 21.24 12.28 21.48C13.24 21.6933 14.28 21.92 15.4 22.16C16.5467 22.4 17.68 22.7067 18.8 23.08C19.9467 23.4267 20.9867 23.9067 21.92 24.52C22.8533 25.1067 23.6 25.8933 24.16 26.88C24.7467 27.84 25.04 29.0533 25.04 30.52C25.04 32.1467 24.5733 33.6533 23.64 35.04C22.7333 36.4 21.36 37.4933 19.52 38.32C17.7067 39.1467 15.4133 39.56 12.64 39.56ZM41.9784 39.36C40.1384 39.36 38.5651 38.96 37.2584 38.16C35.9518 37.3333 34.9518 36.1067 34.2584 34.48C33.5918 32.8267 33.2584 30.72 33.2584 28.16C33.2584 25.5733 33.5784 23.4667 34.2184 21.84C34.8584 20.1867 35.8184 18.96 37.0984 18.16C38.4051 17.36 40.0318 16.96 41.9784 16.96C43.9518 16.96 45.7384 17.4267 47.3384 18.36C48.9651 19.2667 50.2451 20.56 51.1784 22.24C52.1384 23.8933 52.6184 25.8667 52.6184 28.16C52.6184 30.4533 52.1384 32.44 51.1784 34.12C50.2451 35.8 48.9651 37.0933 47.3384 38C45.7384 38.9067 43.9518 39.36 41.9784 39.36ZM28.3384 46.76V17.32H35.5784V21L35.5384 28.16L35.9384 35.36V46.76H28.3384ZM40.3784 33.32C41.2318 33.32 41.9918 33.12 42.6584 32.72C43.3518 32.32 43.8984 31.7333 44.2984 30.96C44.7251 30.1867 44.9384 29.2533 44.9384 28.16C44.9384 27.0667 44.7251 26.1333 44.2984 25.36C43.8984 24.5867 43.3518 24 42.6584 23.6C41.9918 23.2 41.2318 23 40.3784 23C39.5251 23 38.7518 23.2 38.0584 23.6C37.3918 24 36.8451 24.5867 36.4184 25.36C36.0184 26.1333 35.8184 27.0667 35.8184 28.16C35.8184 29.2533 36.0184 30.1867 36.4184 30.96C36.8451 31.7333 37.3918 32.32 38.0584 32.72C38.7518 33.12 39.5251 33.32 40.3784 33.32ZM68.9222 39V34.96L68.4022 33.96V26.52C68.4022 25.32 68.0289 24.4 67.2822 23.76C66.5622 23.0933 65.4022 22.76 63.8022 22.76C62.7622 22.76 61.7089 22.9333 60.6422 23.28C59.5755 23.6 58.6689 24.0533 57.9222 24.64L55.3622 19.48C56.5889 18.68 58.0555 18.0667 59.7622 17.64C61.4955 17.1867 63.2155 16.96 64.9222 16.96C68.4422 16.96 71.1622 17.7733 73.0822 19.4C75.0289 21 76.0022 23.52 76.0022 26.96V39H68.9222ZM62.5222 39.36C60.7889 39.36 59.3222 39.0667 58.1222 38.48C56.9222 37.8933 56.0022 37.0933 55.3622 36.08C54.7489 35.0667 54.4422 33.9333 54.4422 32.68C54.4422 31.3467 54.7755 30.2 55.4422 29.24C56.1355 28.2533 57.1889 27.5067 58.6022 27C60.0155 26.4667 61.8422 26.2 64.0822 26.2H69.2022V30.16H65.1222C63.8955 30.16 63.0289 30.36 62.5222 30.76C62.0422 31.16 61.8022 31.6933 61.8022 32.36C61.8022 33.0267 62.0555 33.56 62.5622 33.96C63.0689 34.36 63.7622 34.56 64.6422 34.56C65.4689 34.56 66.2155 34.36 66.8822 33.96C67.5755 33.5333 68.0822 32.8933 68.4022 32.04L69.4422 34.84C69.0422 36.3333 68.2555 37.4667 67.0822 38.24C65.9355 38.9867 64.4155 39.36 62.5222 39.36ZM92.1528 39.36C89.7528 39.36 87.6061 38.88 85.7128 37.92C83.8461 36.96 82.3795 35.64 81.3128 33.96C80.2461 32.2533 79.7128 30.3067 79.7128 28.12C79.7128 25.9333 80.2461 24 81.3128 22.32C82.3795 20.64 83.8461 19.3333 85.7128 18.4C87.6061 17.44 89.7528 16.96 92.1528 16.96C94.6061 16.96 96.7261 17.48 98.5128 18.52C100.299 19.56 101.566 21.0267 102.313 22.92L96.4328 25.92C95.9261 24.9067 95.2995 24.1733 94.5528 23.72C93.8061 23.24 92.9928 23 92.1128 23C91.2328 23 90.4328 23.2 89.7128 23.6C88.9928 24 88.4195 24.5867 87.9928 25.36C87.5928 26.1067 87.3928 27.0267 87.3928 28.12C87.3928 29.24 87.5928 30.1867 87.9928 30.96C88.4195 31.7333 88.9928 32.32 89.7128 32.72C90.4328 33.12 91.2328 33.32 92.1128 33.32C92.9928 33.32 93.8061 33.0933 94.5528 32.64C95.2995 32.16 95.9261 31.4133 96.4328 30.4L102.313 33.4C101.566 35.2933 100.299 36.76 98.5128 37.8C96.7261 38.84 94.6061 39.36 92.1528 39.36ZM116.3 39.36C113.74 39.36 111.5 38.88 109.58 37.92C107.687 36.9333 106.207 35.6 105.14 33.92C104.1 32.2133 103.58 30.28 103.58 28.12C103.58 25.96 104.087 24.04 105.1 22.36C106.14 20.6533 107.567 19.3333 109.38 18.4C111.193 17.44 113.233 16.96 115.5 16.96C117.633 16.96 119.58 17.4 121.34 18.28C123.1 19.1333 124.5 20.4 125.54 22.08C126.58 23.76 127.1 25.8 127.1 28.2C127.1 28.4667 127.087 28.7733 127.06 29.12C127.033 29.4667 127.007 29.7867 126.98 30.08H109.82V26.08H122.94L120.06 27.2C120.087 26.2133 119.9 25.36 119.5 24.64C119.127 23.92 118.593 23.36 117.9 22.96C117.233 22.56 116.447 22.36 115.54 22.36C114.633 22.36 113.833 22.56 113.14 22.96C112.473 23.36 111.953 23.9333 111.58 24.68C111.207 25.4 111.02 26.2533 111.02 27.24V28.4C111.02 29.4667 111.233 30.3867 111.66 31.16C112.113 31.9333 112.753 32.5333 113.58 32.96C114.407 33.36 115.393 33.56 116.54 33.56C117.607 33.56 118.513 33.4133 119.26 33.12C120.033 32.8 120.793 32.32 121.54 31.68L125.54 35.84C124.5 36.9867 123.22 37.8667 121.7 38.48C120.18 39.0667 118.38 39.36 116.3 39.36Z" fill="url(#paint0_linear_53_96)"/>
<path d="M142.2 24.56H157V27.12H142.2V24.56ZM142.52 39H139.56V11H158.76V13.56H142.52V39ZM164.273 39V18H167.113V39H164.273ZM165.713 13.36C165.126 13.36 164.633 13.16 164.233 12.76C163.833 12.36 163.633 11.88 163.633 11.32C163.633 10.76 163.833 10.2933 164.233 9.92C164.633 9.52 165.126 9.32 165.713 9.32C166.299 9.32 166.793 9.50666 167.193 9.88C167.593 10.2533 167.793 10.72 167.793 11.28C167.793 11.8667 167.593 12.36 167.193 12.76C166.819 13.16 166.326 13.36 165.713 13.36ZM185.735 17.8C187.441 17.8 188.935 18.1333 190.215 18.8C191.521 19.44 192.535 20.4267 193.255 21.76C194.001 23.0933 194.375 24.7733 194.375 26.8V39H191.535V27.08C191.535 24.8667 190.975 23.2 189.855 22.08C188.761 20.9333 187.215 20.36 185.215 20.36C183.721 20.36 182.415 20.6667 181.295 21.28C180.201 21.8667 179.348 22.7333 178.735 23.88C178.148 25 177.855 26.36 177.855 27.96V39H175.015V18H177.735V23.76L177.295 22.68C177.961 21.16 179.028 19.9733 180.495 19.12C181.961 18.24 183.708 17.8 185.735 17.8ZM210.406 39.2C208.406 39.2 206.606 38.7467 205.006 37.84C203.433 36.9333 202.193 35.68 201.286 34.08C200.379 32.4533 199.926 30.5867 199.926 28.48C199.926 26.3467 200.379 24.48 201.286 22.88C202.193 21.28 203.433 20.04 205.006 19.16C206.606 18.2533 208.406 17.8 210.406 17.8C212.246 17.8 213.886 18.2133 215.326 19.04C216.793 19.8667 217.953 21.08 218.806 22.68C219.686 24.2533 220.126 26.1867 220.126 28.48C220.126 30.7467 219.699 32.68 218.846 34.28C217.993 35.88 216.833 37.1067 215.366 37.96C213.926 38.7867 212.273 39.2 210.406 39.2ZM210.606 36.68C212.099 36.68 213.433 36.3467 214.606 35.68C215.806 34.9867 216.739 34.0267 217.406 32.8C218.099 31.5467 218.446 30.1067 218.446 28.48C218.446 26.8267 218.099 25.3867 217.406 24.16C216.739 22.9333 215.806 21.9867 214.606 21.32C213.433 20.6267 212.099 20.28 210.606 20.28C209.139 20.28 207.819 20.6267 206.646 21.32C205.473 21.9867 204.539 22.9333 203.846 24.16C203.153 25.3867 202.806 26.8267 202.806 28.48C202.806 30.1067 203.153 31.5467 203.846 32.8C204.539 34.0267 205.473 34.9867 206.646 35.68C207.819 36.3467 209.139 36.68 210.606 36.68ZM218.526 39V32.68L218.806 28.44L218.406 24.2V9.32H221.246V39H218.526ZM238.075 39.2C235.889 39.2 233.969 38.7467 232.315 37.84C230.662 36.9067 229.369 35.64 228.435 34.04C227.502 32.4133 227.035 30.56 227.035 28.48C227.035 26.4 227.475 24.56 228.355 22.96C229.262 21.36 230.489 20.1067 232.035 19.2C233.609 18.2667 235.369 17.8 237.315 17.8C239.289 17.8 241.035 18.2533 242.555 19.16C244.102 20.04 245.315 21.2933 246.195 22.92C247.075 24.52 247.515 26.3733 247.515 28.48C247.515 28.6133 247.502 28.76 247.475 28.92C247.475 29.0533 247.475 29.2 247.475 29.36H229.195V27.24H245.955L244.835 28.08C244.835 26.56 244.502 25.2133 243.835 24.04C243.195 22.84 242.315 21.9067 241.195 21.24C240.075 20.5733 238.782 20.24 237.315 20.24C235.875 20.24 234.582 20.5733 233.435 21.24C232.289 21.9067 231.395 22.84 230.755 24.04C230.115 25.24 229.795 26.6133 229.795 28.16V28.6C229.795 30.2 230.142 31.6133 230.835 32.84C231.555 34.04 232.542 34.9867 233.795 35.68C235.075 36.3467 236.529 36.68 238.155 36.68C239.435 36.68 240.622 36.4533 241.715 36C242.835 35.5467 243.795 34.8533 244.595 33.92L246.195 35.76C245.262 36.88 244.089 37.7333 242.675 38.32C241.289 38.9067 239.755 39.2 238.075 39.2ZM253.296 39V18H256.016V23.72L255.736 22.72C256.323 21.12 257.309 19.9067 258.696 19.08C260.083 18.2267 261.803 17.8 263.856 17.8V20.56C263.749 20.56 263.643 20.56 263.536 20.56C263.429 20.5333 263.323 20.52 263.216 20.52C261.003 20.52 259.269 21.2 258.016 22.56C256.763 23.8933 256.136 25.8 256.136 28.28V39H253.296Z" fill="black"/>
<defs>
<linearGradient id="paint0_linear_53_96" x1="129" y1="24.5" x2="-7.16042" y2="48.3976" gradientUnits="userSpaceOnUse">
<stop stop-color="#8D35F4"/>
<stop offset="1" stop-color="#F7D48F"/>
</linearGradient>
</defs>
</svg>
